<svg xmlns="http://www.w3.org/2000/svg" viewBox="0 0 512 512" style="enable-background:new 0 0 512 512"><g><path d="M227.333 145.965C235.147 95.22 259.42 46.48 261.648 10h-61.89c-.02.852-.05 1.695-.09 2.537-1.474 32.539-21.707 61.287-51.456 74.537l-61.509 27.395c-8.164 3.641-15.758 8.485-22.417 14.453-89.534 80.225-68.329 282.883 67.545 344.832 48.708 22.217 91.138 29.369 127.278 27.805 12.448-.531 24.305-5.497 33.572-13.832l1.334-1.204c9.881-8.897 22.699-13.682 35.989-13.892 22.75-.372 45.178-8.758 62.842-24.596.131-.121.261-.24.391-.352 16.832-15.176 43.654-6.73 48.168 15.488.722 3.57.16.872.36 38.828h59.983s-7.413-54.226-9.238-69.031c-6.741-54.687-40.864-74.748-67.485-82.029-87.969-24.064-139.605-54.647-168.304-88.199h-.01c-13.651-15.948-22.128-32.559-26.853-49.461" style="stroke-width:20;stroke-linecap:round;stroke-linejoin:round;stroke-miterlimit:10;" fill="none" stroke="#fff" stroke-width="20" stroke-linecap="round" stroke-linejoin="round" stroke-miterlimit="10" data-original="#fff" class=""></path><path d="M107.882 300.72c72.889 20.479 72.889-39.704 148.841-37.978M351.465 411.428c0-11.086-8.986-20.07-20.072-20.07-11.085 0-20.071 8.984-20.071 20.07s8.986 20.071 20.071 20.071c11.086 0 20.072-8.985 20.072-20.071zM261.143 341.178c0-11.084-8.985-20.071-20.071-20.071-11.085 0-20.07 8.987-20.07 20.071 0 11.086 8.985 20.072 20.07 20.072s20.071-8.986 20.071-20.072zM311.322 351.214h0M271.179 401.393h0M421.714 401.393h0M381.571 381.32h0" style="stroke-width:20;stroke-linecap:round;stroke-linejoin:round;stroke-miterlimit:10;" fill="none" stroke="#fff" stroke-width="20" stroke-linecap="round" stroke-linejoin="round" stroke-miterlimit="10" data-original="#fff" class=""></path><path d="M89.211 113.355c-28.808 157.69 51.438 298.119 198.396 378.424M236.59 207.629l35.464-35.463 7.092-21.278 106.39-106.391c7.836-7.834 7.836-20.536 0-28.37-7.833-7.834-20.535-7.834-28.37 0L165.663 207.629c19.586 19.586 51.342 19.586 70.927 0zM307.518 122.518l-28.371-28.372" style="stroke-width:20;stroke-linecap:round;stroke-linejoin:round;stroke-miterlimit:10;" fill="none" stroke="#fff" stroke-width="20" stroke-linecap="round" stroke-linejoin="round" stroke-miterlimit="10" data-original="#fff" class=""></path></g></svg>
