<svg xmlns="http://www.w3.org/2000/svg" viewBox="0 0 512 512" style="enable-background:new 0 0 512 512"><g><path d="m387.435 292.963-17.3-62.363-2.27-16.651c1.502 32.094-2.126 76.132-10.064 113.367-10.415 48.855-10.449 99.352-.786 148.361l5.683 28.824M446.845 229.537c4.764 19.255 8.477 38.813 11.257 58.64M424.333 160.088a489.17 489.17 0 0 1 10.259 27.512M280.241 7.5l5.605 31.989c3.801 21.691 20.389 38.903 41.925 43.503l27.462 5.865c25.319 5.407 46.628 22.316 57.796 45.674M52.985 178.124c-12.909 35.657-21.558 72.439-26.832 110.054M204.014 7.5l-5.605 31.989c-3.801 21.691-20.389 38.903-41.925 43.503l-27.462 5.865c-25.319 5.407-46.628 22.316-57.795 45.674a473.924 473.924 0 0 0-7.843 17.289M121.557 504.5l5.683-28.824c9.663-49.009 9.629-99.506-.786-148.361-7.938-37.235-11.566-81.274-10.064-113.367l-2.27 16.651-17.3 62.363M411.442 221.47l-131.201 60.74M419.386 238.629l-15.887-34.317 56.472-26.144a8.136 8.136 0 0 1 10.8 3.965l9.052 19.552a8.136 8.136 0 0 1-3.965 10.8l-56.472 26.144zM399.076 194.758l24.733 53.424M281.876 302.178c-9.611 3.721-20.418-1.055-24.139-10.665-3.721-9.611 1.055-20.418 10.666-24.139M418.551 374.992l-107.434 45.207M406.185 348.28l24.732 53.424M312.752 440.166c-9.611 3.721-20.418-1.055-24.139-10.666s1.055-20.418 10.666-24.139M95.397 349.768l111.746 33.144M100.13 331.462l-9.468 36.611-60.248-15.581a8.135 8.135 0 0 1-5.839-9.913l5.394-20.86a8.135 8.135 0 0 1 9.913-5.839l60.248 15.582zM88.027 378.266l14.739-56.996M218.536 366.433c9.792 3.215 15.123 13.759 11.907 23.551-3.215 9.792-13.759 15.123-23.551 11.907M471.698 371.224l11.269-5.217a8.136 8.136 0 0 0 3.965-10.8l-9.052-19.552a8.136 8.136 0 0 0-10.8-3.965l-56.472 26.144 15.887 34.317 18.886-8.743" style="stroke-width: 22; stroke-linecap: round; stroke-linejoin: round; stroke-miterlimit: 10;" fill="none" stroke="#fff" stroke-width="22" stroke-linecap="round" stroke-linejoin="round" stroke-miterlimit="10" data-original="#fff" class=""></path></g></svg>